<svg aria-hidden="true" style="position: absolute; width: 0; height: 0; overflow: hidden;" version="1.1" xmlns="http://www.w3.org/2000/svg" xmlns:xlink="http://www.w3.org/1999/xlink">
<defs>
<symbol id="icon-setting-1" viewBox="0 0 24 24">
<path d="M12 22.63c-0.67 0-1.35-0.15-1.88-0.46l-5.5-3.17c-2.24-1.51-2.38-1.74-2.38-4.11v-5.78c0-2.37 0.13-2.6 2.33-4.090l5.54-3.2c1.050-0.61 2.7-0.61 3.75 0l5.52 3.18c2.24 1.51 2.38 1.74 2.38 4.11v5.77c0 2.37-0.13 2.6-2.33 4.090l-5.54 3.2c-0.54 0.31-1.22 0.46-1.89 0.46zM12 2.87c-0.42 0-0.83 0.080-1.12 0.25l-5.5 3.18c-1.63 1.1-1.63 1.1-1.63 2.81v5.77c0 1.71 0 1.71 1.67 2.84l5.46 3.15c0.59 0.34 1.66 0.34 2.25 0l5.5-3.18c1.62-1.1 1.62-1.1 1.62-2.81v-5.77c0-1.71 0-1.71-1.67-2.84l-5.46-3.15c-0.29-0.17-0.7-0.25-1.12-0.25z"></path>
<path d="M12 15.75c-2.070 0-3.75-1.68-3.75-3.75s1.68-3.75 3.75-3.75c2.070 0 3.75 1.68 3.75 3.75s-1.68 3.75-3.75 3.75zM12 9.75c-1.24 0-2.25 1.010-2.25 2.25s1.010 2.25 2.25 2.25c1.24 0 2.25-1.010 2.25-2.25s-1.010-2.25-2.25-2.25z"></path>
</symbol>
<symbol id="icon-key-square" viewBox="0 0 24 24">
<path fill="none" stroke="#9197b3" style="stroke: var(--color1, #9197b3)" stroke-linejoin="round" stroke-linecap="round" stroke-miterlimit="4" stroke-width="1.5" d="M9 22h6c5 0 7-2 7-7v-6c0-5-2-7-7-7h-6c-5 0-7 2-7 7v6c0 5 2 7 7 7z"></path>
<path fill="none" stroke="#9197b3" style="stroke: var(--color1, #9197b3)" stroke-linejoin="round" stroke-linecap="round" stroke-miterlimit="10" stroke-width="1.5" d="M16.28 13.61c-1.13 1.13-2.75 1.48-4.18 1.030l-2.59 2.58c-0.18 0.19-0.55 0.31-0.82 0.27l-1.2-0.16c-0.4-0.050-0.76-0.43-0.82-0.82l-0.16-1.2c-0.040-0.26 0.090-0.63 0.27-0.82l2.58-2.58c-0.44-1.43-0.1-3.050 1.030-4.18 1.62-1.62 4.26-1.62 5.89 0 1.62 1.61 1.62 4.25 0 5.88z"></path>
<path fill="none" stroke="#9197b3" style="stroke: var(--color1, #9197b3)" stroke-linejoin="round" stroke-linecap="round" stroke-miterlimit="10" stroke-width="1.5" d="M10.45 16.28l-0.85-0.86"></path>
<path fill="none" stroke="#9197b3" style="stroke: var(--color1, #9197b3)" stroke-linejoin="round" stroke-linecap="round" stroke-miterlimit="4" stroke-width="2" d="M13.395 10.7h0.009"></path>
</symbol>
<symbol id="icon-chevron-right-2" viewBox="0 0 24 24">
<path fill="none" stroke="#9197b3" style="stroke: var(--color1, #9197b3)" stroke-linejoin="round" stroke-linecap="round" stroke-miterlimit="4" stroke-width="3" d="M9 18l6-6-6-6"></path>
</symbol>
<symbol id="icon-search-1" viewBox="0 0 24 24">
<path fill="none" stroke="#7e7e7e" style="stroke: var(--color2, #7e7e7e)" stroke-linejoin="round" stroke-linecap="round" stroke-miterlimit="4" stroke-width="2" d="M11 19c4.418 0 8-3.582 8-8s-3.582-8-8-8c-4.418 0-8 3.582-8 8s3.582 8 8 8z"></path>
<path fill="none" stroke="#7e7e7e" style="stroke: var(--color2, #7e7e7e)" stroke-linejoin="round" stroke-linecap="round" stroke-miterlimit="4" stroke-width="2" d="M21 21l-4.35-4.35"></path>
</symbol>
<symbol id="icon-message-question-1" viewBox="0 0 24 24">
<path fill="#9197b3" style="fill: var(--color1, #9197b3)" d="M8 22.32c-0.28 0-0.57-0.070-0.83-0.21-0.57-0.3-0.92-0.9-0.92-1.54v-1.42c-3.020-0.31-5-2.53-5-5.71v-6c0-3.44 2.31-5.75 5.75-5.75h10c3.44 0 5.75 2.31 5.75 5.75v6c0 3.44-2.31 5.75-5.75 5.75h-3.77l-4.26 2.84c-0.29 0.19-0.63 0.29-0.97 0.29zM7 3.18c-2.58 0-4.25 1.67-4.25 4.25v6c0 2.58 1.67 4.25 4.25 4.25 0.41 0 0.75 0.34 0.75 0.75v2.13c0 0.13 0.080 0.19 0.13 0.22s0.15 0.060 0.26-0.010l4.45-2.96c0.12-0.080 0.27-0.13 0.42-0.13h4c2.58 0 4.25-1.67 4.25-4.25v-6c0-2.58-1.67-4.25-4.25-4.25h-10.010z"></path>
<path fill="#9197b3" style="fill: var(--color1, #9197b3)" d="M12 12.11c-0.41 0-0.75-0.34-0.75-0.75v-0.21c0-1.16 0.85-1.73 1.17-1.95 0.37-0.25 0.49-0.42 0.49-0.68 0-0.5-0.41-0.91-0.91-0.91s-0.91 0.41-0.91 0.91c0 0.41-0.34 0.75-0.75 0.75s-0.75-0.34-0.75-0.75c0-1.33 1.080-2.41 2.41-2.41s2.41 1.080 2.41 2.41c0 1.14-0.84 1.71-1.15 1.92-0.39 0.26-0.51 0.43-0.51 0.71v0.21c0 0.42-0.34 0.75-0.75 0.75z"></path>
<path fill="#9197b3" style="fill: var(--color1, #9197b3)" d="M12 14.6c-0.42 0-0.75-0.34-0.75-0.75s0.34-0.75 0.75-0.75c0.41 0 0.75 0.34 0.75 0.75s-0.33 0.75-0.75 0.75z"></path>
</symbol>
<symbol id="icon-discount-shape-1" viewBox="0 0 24 24">
<path fill="#9197b3" style="fill: var(--color1, #9197b3)" d="M12 22.75c-0.63 0-1.22-0.24-1.66-0.69l-1.52-1.52c-0.12-0.12-0.44-0.25-0.6-0.25h-2.16c-1.3 0-2.35-1.050-2.35-2.35v-2.16c0-0.16-0.13-0.48-0.25-0.6l-1.52-1.52c-0.44-0.44-0.69-1.030-0.69-1.66s0.24-1.22 0.69-1.66l1.52-1.52c0.12-0.12 0.25-0.44 0.25-0.6v-2.16c0-1.3 1.050-2.35 2.35-2.35h2.16c0.16 0 0.48-0.13 0.6-0.25l1.52-1.52c0.88-0.88 2.44-0.88 3.32 0l1.52 1.52c0.12 0.12 0.44 0.25 0.6 0.25h2.16c1.3 0 2.35 1.050 2.35 2.35v2.16c0 0.16 0.13 0.48 0.25 0.6l1.52 1.52c0.44 0.44 0.69 1.030 0.69 1.66s-0.24 1.22-0.69 1.66l-1.52 1.52c-0.12 0.12-0.25 0.44-0.25 0.6v2.16c0 1.3-1.050 2.35-2.35 2.35h-2.16c-0.16 0-0.48 0.13-0.6 0.25l-1.52 1.52c-0.44 0.45-1.030 0.69-1.66 0.69zM4.52 14.12c0.4 0.4 0.69 1.1 0.69 1.66v2.16c0 0.47 0.38 0.85 0.85 0.85h2.16c0.56 0 1.26 0.29 1.66 0.69l1.52 1.52c0.32 0.32 0.88 0.32 1.2 0l1.52-1.52c0.4-0.4 1.1-0.69 1.66-0.69h2.16c0.47 0 0.85-0.38 0.85-0.85v-2.16c0-0.56 0.29-1.26 0.69-1.66l1.52-1.52c0.16-0.16 0.25-0.37 0.25-0.6s-0.090-0.44-0.25-0.6l-1.52-1.52c-0.4-0.4-0.69-1.1-0.69-1.66v-2.16c0-0.47-0.38-0.85-0.85-0.85h-2.16c-0.56 0-1.26-0.29-1.66-0.69l-1.52-1.52c-0.32-0.32-0.88-0.32-1.2 0l-1.52 1.52c-0.4 0.4-1.1 0.69-1.66 0.69h-2.16c-0.47 0-0.85 0.38-0.85 0.85v2.16c0 0.56-0.29 1.26-0.69 1.66l-1.52 1.52c-0.16 0.16-0.25 0.37-0.25 0.6s0.090 0.44 0.25 0.6l1.52 1.52z"></path>
<path fill="#9197b3" style="fill: var(--color1, #9197b3)" d="M15 16c-0.56 0-1.010-0.45-1.010-1s0.45-1 1-1c0.55 0 1 0.45 1 1s-0.44 1-0.99 1z"></path>
<path fill="#9197b3" style="fill: var(--color1, #9197b3)" d="M9.010 10c-0.56 0-1.010-0.45-1.010-1s0.45-1 1-1c0.55 0 1 0.45 1 1s-0.44 1-0.99 1z"></path>
<path fill="#9197b3" style="fill: var(--color1, #9197b3)" d="M8.999 15.75c-0.19 0-0.38-0.070-0.53-0.22-0.29-0.29-0.29-0.77 0-1.060l6-6c0.29-0.29 0.77-0.29 1.060 0s0.29 0.77 0 1.060l-6 6c-0.15 0.15-0.34 0.22-0.53 0.22z"></path>
</symbol>
<symbol id="icon-wallet-money-2" viewBox="0 0 24 24">
<path fill="none" stroke="#9197b3" style="stroke: var(--color1, #9197b3)" stroke-linejoin="round" stroke-linecap="round" stroke-miterlimit="4" stroke-width="1.5" d="M10.752 16.86v2.030c0 1.72-1.6 3.11-3.57 3.11s-3.58-1.39-3.58-3.11v-2.030c0 1.72 1.6 2.94 3.58 2.94 1.97 0 3.57-1.23 3.57-2.94z"></path>
<path fill="none" stroke="#9197b3" style="stroke: var(--color1, #9197b3)" stroke-linejoin="round" stroke-linecap="round" stroke-miterlimit="4" stroke-width="1.5" d="M10.75 14.11c0 0.5-0.14 0.96-0.38 1.36-0.59 0.97-1.8 1.58-3.2 1.58s-2.61-0.62-3.2-1.58c-0.24-0.4-0.38-0.86-0.38-1.36 0-0.86 0.4-1.63 1.040-2.19 0.65-0.57 1.54-0.91 2.53-0.91s1.88 0.35 2.53 0.91c0.66 0.55 1.060 1.33 1.060 2.19z"></path>
<path fill="none" stroke="#9197b3" style="stroke: var(--color1, #9197b3)" stroke-linejoin="round" stroke-linecap="round" stroke-miterlimit="4" stroke-width="1.5" d="M10.752 14.11v2.75c0 1.72-1.6 2.94-3.57 2.94s-3.58-1.23-3.58-2.94v-2.75c0-1.72 1.6-3.11 3.58-3.11 0.99 0 1.88 0.35 2.53 0.91 0.64 0.56 1.040 1.34 1.040 2.2z"></path>
<path fill="none" stroke="#9197b3" style="stroke: var(--color1, #9197b3)" stroke-linejoin="round" stroke-linecap="round" stroke-miterlimit="4" stroke-width="1.5" d="M22 10.97v2.060c0 0.55-0.44 1-1 1.020h-1.96c-1.080 0-2.070-0.79-2.16-1.87-0.060-0.63 0.18-1.22 0.6-1.63 0.37-0.38 0.88-0.6 1.44-0.6h2.080c0.56 0.020 1 0.47 1 1.020z"></path>
<path fill="none" stroke="#9197b3" style="stroke: var(--color1, #9197b3)" stroke-linejoin="round" stroke-linecap="round" stroke-miterlimit="4" stroke-width="1.5" d="M2 10.5v-2c0-2.72 1.64-4.62 4.19-4.94 0.26-0.040 0.53-0.060 0.81-0.060h9c0.26 0 0.51 0.010 0.75 0.050 2.58 0.3 4.25 2.21 4.25 4.95v1.45h-2.080c-0.56 0-1.070 0.22-1.44 0.6-0.42 0.41-0.66 1-0.6 1.63 0.090 1.080 1.080 1.87 2.16 1.87h1.96v1.45c0 3-2 5-5 5h-2.5"></path>
</symbol>
<symbol id="icon-user-square-1" viewBox="0 0 24 24">
<path fill="#fff" style="fill: var(--color3, #fff)" d="M15.001 22.75h-6c-1.32 0-2.42-0.13-3.35-0.41-0.34-0.1-0.56-0.43-0.54-0.78 0.25-2.99 3.28-5.34 6.89-5.34s6.63 2.34 6.89 5.34c0.030 0.36-0.19 0.68-0.54 0.78-0.93 0.28-2.030 0.41-3.35 0.41zM6.721 21.060c0.66 0.13 1.41 0.19 2.28 0.19h6c0.87 0 1.62-0.060 2.28-0.19-0.53-1.92-2.72-3.34-5.28-3.34s-4.75 1.42-5.28 3.34z"></path>
<path fill="none" stroke="#fff" style="stroke: var(--color3, #fff)" stroke-linejoin="round" stroke-linecap="round" stroke-miterlimit="4" stroke-width="1.5" d="M15 2h-6c-5 0-7 2-7 7v6c0 3.78 1.14 5.85 3.86 6.62 0.22-2.6 2.89-4.65 6.14-4.65s5.92 2.050 6.14 4.65c2.72-0.77 3.86-2.84 3.86-6.62v-6c0-5-2-7-7-7zM12 14.17c-1.98 0-3.58-1.61-3.58-3.59s1.6-3.58 3.58-3.58c1.98 0 3.58 1.6 3.58 3.58s-1.6 3.59-3.58 3.59z"></path>
<path fill="#fff" style="fill: var(--color3, #fff)" d="M12 14.92c-2.39 0-4.33-1.95-4.33-4.34s1.94-4.33 4.33-4.33c2.39 0 4.33 1.94 4.33 4.33s-1.94 4.34-4.33 4.34zM12 7.75c-1.56 0-2.83 1.27-2.83 2.83 0 1.57 1.27 2.84 2.83 2.84s2.83-1.27 2.83-2.84c0-1.56-1.27-2.83-2.83-2.83z"></path>
</symbol>
<symbol id="icon-d-square-1" viewBox="0 0 24 24">
<path fill="#9197b3" style="fill: var(--color1, #9197b3)" d="M15 22.75h-6c-5.43 0-7.75-2.32-7.75-7.75v-6c0-5.43 2.32-7.75 7.75-7.75h6c5.43 0 7.75 2.32 7.75 7.75v6c0 5.43-2.32 7.75-7.75 7.75zM9 2.75c-4.61 0-6.25 1.64-6.25 6.25v6c0 4.61 1.64 6.25 6.25 6.25h6c4.61 0 6.25-1.64 6.25-6.25v-6c0-4.61-1.64-6.25-6.25-6.25h-6z"></path>
<path fill="#9197b3" style="fill: var(--color1, #9197b3)" d="M12.001 13.080c-0.13 0-0.26-0.030-0.38-0.1l-5.3-3.060c-0.36-0.21-0.48-0.67-0.27-1.020 0.21-0.36 0.67-0.48 1.020-0.27l4.92 2.85 4.89-2.83c0.36-0.21 0.82-0.080 1.020 0.27s0.080 0.82-0.27 1.020l-5.26 3.040c-0.11 0.060-0.24 0.1-0.37 0.1z"></path>
<path fill="#9197b3" style="fill: var(--color1, #9197b3)" d="M12 18.52c-0.41 0-0.75-0.34-0.75-0.75v-5.44c0-0.41 0.34-0.75 0.75-0.75s0.75 0.34 0.75 0.75v5.44c0 0.41-0.34 0.75-0.75 0.75z"></path>
<path fill="#9197b3" style="fill: var(--color1, #9197b3)" d="M12 18.75c-0.58 0-1.15-0.13-1.61-0.38l-3.2-1.78c-0.96-0.53-1.7-1.8-1.7-2.9v-3.39c0-1.090 0.75-2.36 1.7-2.9l3.2-1.78c0.92-0.51 2.3-0.51 3.22 0l3.2 1.78c0.96 0.53 1.7 1.8 1.7 2.9v3.39c0 1.090-0.75 2.36-1.7 2.9l-3.2 1.78c-0.46 0.26-1.030 0.38-1.61 0.38zM12 6.75c-0.33 0-0.65 0.060-0.88 0.19l-3.2 1.78c-0.49 0.27-0.93 1.030-0.93 1.58v3.39c0 0.56 0.44 1.31 0.93 1.58l3.2 1.78c0.46 0.26 1.3 0.26 1.76 0l3.2-1.78c0.49-0.27 0.93-1.030 0.93-1.58v-3.39c0-0.56-0.44-1.31-0.93-1.58l-3.2-1.78c-0.23-0.13-0.55-0.19-0.88-0.19z"></path>
</symbol>
<symbol id="icon-person_outline" viewBox="0 0 24 24">
<path d="M12 12.984q1.5 0 3.281 0.422t3.258 1.406 1.477 2.203v3h-16.031v-3q0-1.219 1.477-2.203t3.258-1.406 3.281-0.422zM12 3.984q1.641 0 2.813 1.195t1.172 2.836-1.172 2.813-2.813 1.172-2.813-1.172-1.172-2.813 1.172-2.836 2.813-1.195zM12 14.906q-2.063 0-4.078 0.773t-2.016 1.336v1.078h12.188v-1.078q0-0.563-2.016-1.336t-4.078-0.773zM12 5.906q-0.891 0-1.5 0.609t-0.609 1.5 0.609 1.477 1.5 0.586 1.5-0.586 0.609-1.477-0.609-1.5-1.5-0.609z"></path>
</symbol>
<symbol id="icon-search" viewBox="0 0 24 24">
<path d="M16.041 15.856c-0.034 0.026-0.067 0.055-0.099 0.087s-0.060 0.064-0.087 0.099c-1.258 1.213-2.969 1.958-4.855 1.958-1.933 0-3.682-0.782-4.95-2.050s-2.050-3.017-2.050-4.95 0.782-3.682 2.050-4.95 3.017-2.050 4.95-2.050 3.682 0.782 4.95 2.050 2.050 3.017 2.050 4.95c0 1.886-0.745 3.597-1.959 4.856zM21.707 20.293l-3.675-3.675c1.231-1.54 1.968-3.493 1.968-5.618 0-2.485-1.008-4.736-2.636-6.364s-3.879-2.636-6.364-2.636-4.736 1.008-6.364 2.636-2.636 3.879-2.636 6.364 1.008 4.736 2.636 6.364 3.879 2.636 6.364 2.636c2.125 0 4.078-0.737 5.618-1.968l3.675 3.675c0.391 0.391 1.024 0.391 1.414 0s0.391-1.024 0-1.414z"></path>
</symbol>
<symbol id="icon-user" viewBox="0 0 24 24">
<path d="M21 21v-2c0-1.38-0.561-2.632-1.464-3.536s-2.156-1.464-3.536-1.464h-8c-1.38 0-2.632 0.561-3.536 1.464s-1.464 2.156-1.464 3.536v2c0 0.552 0.448 1 1 1s1-0.448 1-1v-2c0-0.829 0.335-1.577 0.879-2.121s1.292-0.879 2.121-0.879h8c0.829 0 1.577 0.335 2.121 0.879s0.879 1.292 0.879 2.121v2c0 0.552 0.448 1 1 1s1-0.448 1-1zM17 7c0-1.38-0.561-2.632-1.464-3.536s-2.156-1.464-3.536-1.464-2.632 0.561-3.536 1.464-1.464 2.156-1.464 3.536 0.561 2.632 1.464 3.536 2.156 1.464 3.536 1.464 2.632-0.561 3.536-1.464 1.464-2.156 1.464-3.536zM15 7c0 0.829-0.335 1.577-0.879 2.121s-1.292 0.879-2.121 0.879-1.577-0.335-2.121-0.879-0.879-1.292-0.879-2.121 0.335-1.577 0.879-2.121 1.292-0.879 2.121-0.879 1.577 0.335 2.121 0.879 0.879 1.292 0.879 2.121z"></path>
</symbol>
<symbol id="icon-shopping-bag" viewBox="0 0 24 24">
<path d="M19 5h-14l1.5-2h11zM21.794 5.392l-2.994-3.992c-0.196-0.261-0.494-0.399-0.8-0.4h-12c-0.326 0-0.616 0.156-0.8 0.4l-2.994 3.992c-0.043 0.056-0.081 0.117-0.111 0.182-0.065 0.137-0.096 0.283-0.095 0.426v14c0 0.828 0.337 1.58 0.879 2.121s1.293 0.879 2.121 0.879h14c0.828 0 1.58-0.337 2.121-0.879s0.879-1.293 0.879-2.121v-14c0-0.219-0.071-0.422-0.189-0.585-0.004-0.005-0.007-0.010-0.011-0.015zM4 7h16v13c0 0.276-0.111 0.525-0.293 0.707s-0.431 0.293-0.707 0.293h-14c-0.276 0-0.525-0.111-0.707-0.293s-0.293-0.431-0.293-0.707zM15 10c0 0.829-0.335 1.577-0.879 2.121s-1.292 0.879-2.121 0.879-1.577-0.335-2.121-0.879-0.879-1.292-0.879-2.121c0-0.552-0.448-1-1-1s-1 0.448-1 1c0 1.38 0.561 2.632 1.464 3.536s2.156 1.464 3.536 1.464 2.632-0.561 3.536-1.464 1.464-2.156 1.464-3.536c0-0.552-0.448-1-1-1s-1 0.448-1 1z"></path>
</symbol>
<symbol id="icon-heart-o" viewBox="0 0 28 28">
<path d="M26 9.312c0-4.391-2.969-5.313-5.469-5.313-2.328 0-4.953 2.516-5.766 3.484-0.375 0.453-1.156 0.453-1.531 0-0.812-0.969-3.437-3.484-5.766-3.484-2.5 0-5.469 0.922-5.469 5.313 0 2.859 2.891 5.516 2.922 5.547l9.078 8.75 9.063-8.734c0.047-0.047 2.938-2.703 2.938-5.563zM28 9.312c0 3.75-3.437 6.891-3.578 7.031l-9.734 9.375c-0.187 0.187-0.438 0.281-0.688 0.281s-0.5-0.094-0.688-0.281l-9.75-9.406c-0.125-0.109-3.563-3.25-3.563-7 0-4.578 2.797-7.313 7.469-7.313 2.734 0 5.297 2.156 6.531 3.375 1.234-1.219 3.797-3.375 6.531-3.375 4.672 0 7.469 2.734 7.469 7.313z"></path>
</symbol>
<symbol id="icon-film" viewBox="0 0 32 32">
<path d="M29 0h-26c-0.552 0-1 0.448-1 1v30c0 0.553 0.448 1 1 1h26c0.553 0 1-0.447 1-1v-30c0-0.552-0.447-1-1-1zM5 28c-0.552 0-1-0.447-1-1s0.448-1 1-1 1 0.447 1 1-0.448 1-1 1zM5 24c-0.552 0-1-0.447-1-1s0.448-1 1-1 1 0.447 1 1-0.448 1-1 1zM5 20c-0.552 0-1-0.447-1-1s0.448-1 1-1 1 0.447 1 1-0.448 1-1 1zM5 16c-0.552 0-1-0.448-1-1s0.448-1 1-1 1 0.448 1 1-0.448 1-1 1zM5 12c-0.552 0-1-0.448-1-1s0.448-1 1-1 1 0.448 1 1-0.448 1-1 1zM5 8c-0.552 0-1-0.448-1-1s0.448-1 1-1 1 0.448 1 1-0.448 1-1 1zM5 4c-0.552 0-1-0.448-1-1s0.448-1 1-1 1 0.448 1 1-0.448 1-1 1zM24 29c0 0.553-0.447 1-1 1h-14c-0.552 0-1-0.447-1-1v-10c0-0.553 0.448-1 1-1h14c0.553 0 1 0.447 1 1v10zM24 15c0 0.552-0.447 1-1 1h-14c-0.552 0-1-0.448-1-1v-12c0-0.552 0.448-1 1-1h14c0.553 0 1 0.448 1 1v12zM27 28c-0.553 0-1-0.447-1-1s0.447-1 1-1 1 0.447 1 1-0.447 1-1 1zM27 24c-0.553 0-1-0.447-1-1s0.447-1 1-1 1 0.447 1 1-0.447 1-1 1zM27 20c-0.553 0-1-0.447-1-1s0.447-1 1-1 1 0.447 1 1-0.447 1-1 1zM27 16c-0.553 0-1-0.448-1-1s0.447-1 1-1 1 0.448 1 1-0.447 1-1 1zM27 12c-0.553 0-1-0.448-1-1s0.447-1 1-1 1 0.448 1 1-0.447 1-1 1zM27 8c-0.553 0-1-0.448-1-1s0.447-1 1-1 1 0.448 1 1-0.447 1-1 1zM27 4c-0.553 0-1-0.448-1-1s0.447-1 1-1 1 0.448 1 1-0.447 1-1 1z"></path>
</symbol>
<symbol id="icon-play" viewBox="0 0 32 32">
<path d="M30.662 5.003c-4.488-0.645-9.448-1.003-14.662-1.003s-10.174 0.358-14.662 1.003c-0.86 3.366-1.338 7.086-1.338 10.997s0.477 7.63 1.338 10.997c4.489 0.645 9.448 1.003 14.662 1.003s10.174-0.358 14.662-1.003c0.86-3.366 1.338-7.086 1.338-10.997s-0.477-7.63-1.338-10.997zM12 22v-12l10 6-10 6z"></path>
</symbol>
</defs>
</svg>
